HIERARCHY
ROOT Hips
{
	OFFSET 0.000000 100.481300 0.000000
	CHANNELS 6 Xposition Yposition Zposition Xrotation Yrotation Zrotation 
	JOINT Spine
	{
		OFFSET -0.279200 12.230698 -2.892100
		CHANNELS 3 Xrotation Yrotation Zrotation
		JOINT Spine1
		{
			OFFSET -0.232667 10.192268 -1.242267
			CHANNELS 3 Xrotation Yrotation Zrotation
			JOINT Spine1_split
			{
				OFFSET -0.232667 10.192268 -1.242267
				CHANNELS 3 Xrotation Yrotation Zrotation
				JOINT Spine2
				{
					OFFSET -0.232667 10.192268 -1.242267
					CHANNELS 3 Xrotation Yrotation Zrotation
					JOINT Neck
					{
						OFFSET -0.418800 17.814194 8.416900
						CHANNELS 3 Xrotation Yrotation Zrotation
						JOINT Head
						{
							OFFSET 0.000000 7.031097 3.806800
							CHANNELS 3 Xrotation Yrotation Zrotation
							JOINT HeadTop_End
							{
								OFFSET 0.000000 24.646606 12.978600
								CHANNELS 3 Xrotation Yrotation Zrotation
								End Site
								{
									OFFSET 0.000000 0.000000 0.000000
								}
							}
						}
					}
					JOINT LeftShoulder
					{
						OFFSET 8.476499 7.247704 -3.868750
						CHANNELS 3 Xrotation Yrotation Zrotation
						JOINT LeftShoulder_split
						{
							OFFSET 8.476499 7.247704 -3.868750
							CHANNELS 3 Xrotation Yrotation Zrotation
							JOINT LeftArm
							{
								OFFSET 9.308998 -2.777710 0.208600
								CHANNELS 3 Xrotation Yrotation Zrotation
								JOINT LeftForeArm
								{
									OFFSET 29.972298 0.000000 0.000000
									CHANNELS 3 Xrotation Yrotation Zrotation
									JOINT LeftHand
									{
										OFFSET 26.026505 0.000000 0.000000
										CHANNELS 3 Xrotation Yrotation Zrotation
										JOINT LeftHandThumb1
										{
											OFFSET 12.240501 -7.147949 9.207150
											CHANNELS 3 Xrotation Yrotation Zrotation
											JOINT LeftHandThumb2
											{
												OFFSET 4.138618 -2.389435 2.389433
												CHANNELS 3 Xrotation Yrotation Zrotation
												JOINT LeftHandThumb3
												{
													OFFSET 2.726913 -1.574387 1.574386
													CHANNELS 3 Xrotation Yrotation Zrotation
													JOINT LeftHandThumb4
													{
														OFFSET 3.941010 -2.275345 2.275342
														CHANNELS 3 Xrotation Yrotation Zrotation
														End Site
														{
															OFFSET 0.000000 0.000000 0.000000
														}
													}
												}
											}
										}
										JOINT LeftHandIndex1
										{
											OFFSET 24.424698 -1.985611 5.953459
											CHANNELS 3 Xrotation Yrotation Zrotation
											JOINT LeftHandIndex2
											{
												OFFSET 6.426697 0.000000 0.000000
												CHANNELS 3 Xrotation Yrotation Zrotation
												JOINT LeftHandIndex3
												{
													OFFSET 5.337898 0.000000 0.000000
													CHANNELS 3 Xrotation Yrotation Zrotation
													JOINT LeftHandIndex4
													{
														OFFSET 4.409401 0.000000 0.000000
														CHANNELS 3 Xrotation Yrotation Zrotation
														End Site
														{
															OFFSET 0.000000 0.000000 0.000000
														}
													}
												}
											}
										}
										JOINT LeftHandMiddle1
										{
											OFFSET 23.810104 0.000000 0.000000
											CHANNELS 3 Xrotation Yrotation Zrotation
											JOINT LeftHandMiddle2
											{
												OFFSET 7.176498 0.000000 0.000000
												CHANNELS 3 Xrotation Yrotation Zrotation
												JOINT LeftHandMiddle3
												{
													OFFSET 6.774902 0.000000 0.000000
													CHANNELS 3 Xrotation Yrotation Zrotation
													JOINT LeftHandMiddle4
													{
														OFFSET 5.403328 0.000000 0.000000
														CHANNELS 3 Xrotation Yrotation Zrotation
														End Site
														{
															OFFSET 0.000000 0.000000 0.000000
														}
													}
												}
											}
										}
										JOINT LeftHandRing1
										{
											OFFSET 22.908401 -0.839279 -6.020567
											CHANNELS 3 Xrotation Yrotation Zrotation
											JOINT LeftHandRing2
											{
												OFFSET 6.337502 0.000000 0.000000
												CHANNELS 3 Xrotation Yrotation Zrotation
												JOINT LeftHandRing3
												{
													OFFSET 5.779297 0.000000 0.000000
													CHANNELS 3 Xrotation Yrotation Zrotation
													JOINT LeftHandRing4
													{
														OFFSET 4.965698 0.000000 0.000000
														CHANNELS 3 Xrotation Yrotation Zrotation
														End Site
														{
															OFFSET 0.000000 0.000000 0.000000
														}
													}
												}
											}
										}
										JOINT LeftHandPinky1
										{
											OFFSET 20.037003 -1.530319 -10.950146
											CHANNELS 3 Xrotation Yrotation Zrotation
											JOINT LeftHandPinky2
											{
												OFFSET 5.254700 0.000000 0.000000
												CHANNELS 3 Xrotation Yrotation Zrotation
												JOINT LeftHandPinky3
												{
													OFFSET 4.810204 0.000000 0.000000
													CHANNELS 3 Xrotation Yrotation Zrotation
													JOINT LeftHandPinky4
													{
														OFFSET 3.647202 0.000000 0.000000
														CHANNELS 3 Xrotation Yrotation Zrotation
														End Site
														{
															OFFSET 0.000000 0.000000 0.000000
														}
													}
												}
											}
										}
									}
								}
							}
						}
					}
					JOINT RightShoulder
					{
						OFFSET -7.570500 7.247704 -3.868750
						CHANNELS 3 Xrotation Yrotation Zrotation
						JOINT RightShoulder_split
						{
							OFFSET -7.570500 7.247704 -3.868750
							CHANNELS 3 Xrotation Yrotation Zrotation
							JOINT RightArm
							{
								OFFSET -9.308998 -2.777710 0.208500
								CHANNELS 3 Xrotation Yrotation Zrotation
								JOINT RightForeArm
								{
									OFFSET -29.972300 0.000000 0.000000
									CHANNELS 3 Xrotation Yrotation Zrotation
									JOINT RightHand
									{
										OFFSET -26.026505 0.000000 0.000000
										CHANNELS 3 Xrotation Yrotation Zrotation
										JOINT RightHandThumb1
										{
											OFFSET -12.240601 -7.148026 9.207092
											CHANNELS 3 Xrotation Yrotation Zrotation
											JOINT RightHandThumb2
											{
												OFFSET -4.138618 -2.389435 2.389433
												CHANNELS 3 Xrotation Yrotation Zrotation
												JOINT RightHandThumb3
												{
													OFFSET -2.726974 -1.574417 1.574421
													CHANNELS 3 Xrotation Yrotation Zrotation
													JOINT RightHandThumb4
													{
														OFFSET -3.941010 -2.275345 2.275343
														CHANNELS 3 Xrotation Yrotation Zrotation
														End Site
														{
															OFFSET 0.000000 0.000000 0.000000
														}
													}
												}
											}
										}
										JOINT RightHandIndex1
										{
											OFFSET -24.424698 -1.985657 5.953444
											CHANNELS 3 Xrotation Yrotation Zrotation
											JOINT RightHandIndex2
											{
												OFFSET -6.426697 0.000000 0.000000
												CHANNELS 3 Xrotation Yrotation Zrotation
												JOINT RightHandIndex3
												{
													OFFSET -5.337898 0.000000 0.000000
													CHANNELS 3 Xrotation Yrotation Zrotation
													JOINT RightHandIndex4
													{
														OFFSET -4.409401 0.000000 0.000000
														CHANNELS 3 Xrotation Yrotation Zrotation
														End Site
														{
															OFFSET 0.000000 0.000000 0.000000
														}
													}
												}
											}
										}
										JOINT RightHandMiddle1
										{
											OFFSET -23.810097 0.000000 0.000000
											CHANNELS 3 Xrotation Yrotation Zrotation
											JOINT RightHandMiddle2
											{
												OFFSET -7.176498 0.000000 0.000000
												CHANNELS 3 Xrotation Yrotation Zrotation
												JOINT RightHandMiddle3
												{
													OFFSET -6.774902 0.000000 0.000000
													CHANNELS 3 Xrotation Yrotation Zrotation
													JOINT RightHandMiddle4
													{
														OFFSET -5.403328 0.000000 0.000000
														CHANNELS 3 Xrotation Yrotation Zrotation
														End Site
														{
															OFFSET 0.000000 0.000000 0.000000
														}
													}
												}
											}
										}
										JOINT RightHandRing1
										{
											OFFSET -22.908302 -0.839325 -6.020576
											CHANNELS 3 Xrotation Yrotation Zrotation
											JOINT RightHandRing2
											{
												OFFSET -6.337502 0.000000 0.000000
												CHANNELS 3 Xrotation Yrotation Zrotation
												JOINT RightHandRing3
												{
													OFFSET -5.779297 0.000000 0.000000
													CHANNELS 3 Xrotation Yrotation Zrotation
													JOINT RightHandRing4
													{
														OFFSET -4.965698 0.000000 0.000000
														CHANNELS 3 Xrotation Yrotation Zrotation
														End Site
														{
															OFFSET 0.000000 0.000000 0.000000
														}
													}
												}
											}
										}
										JOINT RightHandPinky1
										{
											OFFSET -20.037003 -1.530334 -10.950259
											CHANNELS 3 Xrotation Yrotation Zrotation
											JOINT RightHandPinky2
											{
												OFFSET -5.254700 0.000000 0.000000
												CHANNELS 3 Xrotation Yrotation Zrotation
												JOINT RightHandPinky3
												{
													OFFSET -4.810204 0.000000 0.000000
													CHANNELS 3 Xrotation Yrotation Zrotation
													JOINT RightHandPinky4
													{
														OFFSET -3.647202 0.000000 0.000000
														CHANNELS 3 Xrotation Yrotation Zrotation
														End Site
														{
															OFFSET 0.000000 0.000000 0.000000
														}
													}
												}
											}
										}
									}
								}
							}
						}
					}
				}
			}
		}
	}
	JOINT LeftUpLeg
	{
		OFFSET 15.427100 -6.655098 0.678600
		CHANNELS 3 Xrotation Yrotation Zrotation
		JOINT LeftLeg
		{
			OFFSET 4.081073 -39.591068 13.024000
			CHANNELS 3 Xrotation Yrotation Zrotation
			JOINT LeftFoot
			{
				OFFSET -4.081074 -37.707932 -15.979700
				CHANNELS 3 Xrotation Yrotation Zrotation
				JOINT LeftToeBase
				{
					OFFSET 5.346399 -15.068900 20.645000
					CHANNELS 3 Xrotation Yrotation Zrotation
					JOINT LeftToe_End
					{
						OFFSET 2.754700 0.931300 11.300900
						CHANNELS 3 Xrotation Yrotation Zrotation
						End Site
						{
							OFFSET 0.000000 0.000000 0.000000
						}
					}
				}
			}
		}
	}
	JOINT RightUpLeg
	{
		OFFSET -15.569500 -6.655098 0.678600
		CHANNELS 3 Xrotation Yrotation Zrotation
		JOINT RightLeg
		{
			OFFSET -4.081825 -39.591045 13.023800
			CHANNELS 3 Xrotation Yrotation Zrotation
			JOINT RightFoot
			{
				OFFSET 4.081824 -37.707954 -15.979600
				CHANNELS 3 Xrotation Yrotation Zrotation
				JOINT RightToeBase
				{
					OFFSET -5.346400 -15.068900 20.645000
					CHANNELS 3 Xrotation Yrotation Zrotation
					JOINT RightToe_End
					{
						OFFSET -2.754700 0.931300 11.300900
						CHANNELS 3 Xrotation Yrotation Zrotation
						End Site
						{
							OFFSET 0.000000 0.000000 0.000000
						}
					}
				}
			}
		}
	}
}
MOTION
Frames: 4
Frame Time: 0.016667
-0.003860 74.367691 -0.357197 11.754893 -49.677667 11.771172 10.996845 2.942072 -2.515426 6.100708 5.566532 -4.284678 0.000000 0.000000 0.000000 -5.786931 6.328154 -3.046183 2.318914 9.363310 -0.265299 -4.146750 23.161907 -3.523335 0.000001 -0.000000 -0.000000 -1.875339 -16.181743 -2.870468 0.000000 0.000000 0.000000 -10.644669 2.164765 -45.510643 -22.862381 -25.786256 -15.871673 2.491053 -2.511895 6.860487 18.457949 -9.513816 13.216586 -1.150203 11.255314 -8.400847 5.706538 8.483115 -0.820718 -0.000000 0.000002 -0.000002 -1.232786 -5.771927 -0.192334 0.133960 -0.197665 -4.602125 0.055734 -0.448185 -7.568196 0.000000 0.000001 0.000000 1.884744 4.663368 -4.597400 0.476702 -1.009848 -12.986440 0.628518 -1.346616 -16.554003 -0.000002 -0.000002 0.000001 3.024637 7.938950 -14.103483 -0.708002 -0.566244 -18.895727 -0.726391 -0.705029 -22.058427 -0.000001 0.000002 0.000001 2.010402 6.305966 -22.386517 -0.815375 -0.210759 -16.746485 -2.232643 0.018985 -34.673817 -0.000000 -0.000001 0.000001 -5.074768 24.344970 1.482928 0.000000 0.000000 0.000000 6.642457 -34.735016 57.610426 -21.032041 44.833871 19.961732 -0.087235 35.608467 7.474309 55.149512 18.649606 -29.698287 -0.442537 -14.180528 7.313148 21.666982 -29.244517 9.142378 -0.000000 -0.000000 -0.000001 5.673360 7.585014 36.844171 1.050462 3.824500 68.900257 0.499576 3.026046 62.196454 -0.000001 0.000000 -0.000002 -0.125705 1.886082 45.000770 -1.169012 3.204689 68.417670 -0.936423 1.813609 41.107535 -0.000000 -0.000002 0.000002 -5.312008 1.216637 58.508821 -0.745223 1.667573 48.011257 -0.816470 1.840615 53.666558 0.000001 -0.000001 0.000001 -7.756797 -9.376461 47.264018 -0.526055 1.541579 45.600518 -0.508177 0.803439 24.986610 0.000006 0.000001 -0.000001 -67.586505 25.164357 42.947232 43.279610 -19.356787 3.336703 8.271958 0.637551 -12.352745 -0.971543 -6.109419 0.595351 0.000000 -0.000000 0.000000 -29.726780 0.631852 -30.302988 49.962912 5.852524 -4.864580 -26.770440 -5.250206 27.155294 0.528343 2.970041 1.471352 0.000000 -0.000001 -0.000000 
-0.020699 74.462402 -0.477099 11.553276 -49.975630 11.569919 10.976284 2.929369 -2.539972 5.917137 5.588684 -4.389562 0.000000 0.000000 0.000000 -5.960383 6.358693 -3.163034 2.261341 9.594047 -0.194444 -3.771937 23.396941 -3.738609 -0.000000 0.000000 -0.000000 -1.850133 -16.049186 -2.794404 0.000000 0.000000 0.000000 -9.956439 2.817353 -45.285913 -23.315177 -27.943298 -17.248427 2.184516 -1.065429 7.247051 18.457982 -9.513811 13.216594 -1.150184 11.255323 -8.400829 5.706542 8.483092 -0.820700 0.000000 0.000001 0.000000 -1.232785 -5.771927 -0.192336 0.133969 -0.197664 -4.602082 0.055743 -0.448161 -7.568201 0.000001 0.000001 -0.000002 1.884754 4.663377 -4.597391 0.476689 -1.009829 -12.986426 0.628531 -1.346628 -16.554055 0.000001 0.000003 0.000001 3.024622 7.938921 -14.103473 -0.708002 -0.566208 -18.895734 -0.726374 -0.705013 -22.058390 0.000001 0.000001 -0.000002 2.010427 6.305929 -22.386558 -0.815396 -0.210733 -16.746464 -2.232646 0.018986 -34.673817 0.000001 0.000001 -0.000000 -5.082255 24.342384 1.499011 0.000000 0.000000 0.000000 5.825076 -34.063793 57.690148 -20.478434 43.293974 19.040903 0.231098 35.997166 7.762148 55.149512 18.649606 -29.698287 -0.442540 -14.180528 7.313148 21.666986 -29.244510 9.142378 -0.000000 0.000000 -0.000001 5.673363 7.585013 36.844168 1.050463 3.824495 68.900257 0.499578 3.026046 62.196447 0.000003 -0.000000 0.000001 -0.125705 1.886084 45.000770 -1.169012 3.204690 68.417670 -0.936426 1.813609 41.107531 0.000001 0.000001 0.000002 -5.312008 1.216640 58.508821 -0.745220 1.667573 48.011261 -0.816470 1.840615 53.666558 -0.000001 0.000001 -0.000002 -7.756799 -9.376458 47.264018 -0.526057 1.541577 45.600518 -0.508181 0.803442 24.986608 0.000002 0.000000 -0.000000 -67.314308 25.191484 43.194567 43.037012 -19.317783 3.312795 8.345104 0.657555 -12.502993 -0.887395 -6.082267 0.557898 0.000000 0.000001 0.000000 -29.804586 0.556739 -30.087629 49.912717 5.956449 -4.879499 -26.630045 -5.014200 26.956228 0.528340 2.970015 1.471331 0.000000 0.000000 -0.000000 
-0.042670 74.558693 -0.588188 11.415253 -50.311443 11.421576 10.953013 2.914908 -2.553393 5.754461 5.620917 -4.465459 0.000000 0.000000 0.000000 -6.114665 6.395255 -3.246988 2.473461 9.737930 -0.469675 -4.007681 23.494367 -3.699871 -0.000000 -0.000000 -0.000000 -1.856193 -16.125015 -2.793419 0.000000 0.000000 0.000000 -9.304245 3.610385 -44.990599 -23.777480 -29.920713 -18.575212 1.944028 0.057004 7.820672 18.457972 -9.513799 13.216604 -1.150188 11.255270 -8.400877 5.706524 8.483146 -0.820698 -0.000002 0.000001 -0.000002 -1.232764 -5.771924 -0.192320 0.133947 -0.197700 -4.602109 0.055740 -0.448180 -7.568184 0.000003 -0.000000 0.000001 1.884748 4.663350 -4.597399 0.476689 -1.009828 -12.986412 0.628543 -1.346640 -16.554026 -0.000002 -0.000001 0.000000 3.024625 7.938916 -14.103475 -0.708029 -0.566198 -18.895758 -0.726375 -0.705030 -22.058417 -0.000002 0.000001 0.000001 2.010396 6.305944 -22.386520 -0.815373 -0.210747 -16.746493 -2.232641 0.018993 -34.673834 -0.000000 -0.000000 0.000002 -5.081653 24.149920 1.470715 0.000000 0.000000 0.000000 7.290155 -35.178923 57.904479 -21.255096 45.591175 20.253111 -0.452732 34.561539 8.086140 55.149512 18.649604 -29.698287 -0.442541 -14.180535 7.313150 21.666987 -29.244517 9.142377 0.000000 -0.000000 -0.000000 5.673362 7.585016 36.844168 1.050463 3.824496 68.900257 0.499578 3.026048 62.196447 0.000001 0.000002 -0.000006 -0.125704 1.886085 45.000766 -1.169012 3.204689 68.417670 -0.936426 1.813607 41.107528 -0.000000 -0.000002 -0.000001 -5.312006 1.216641 58.508814 -0.745222 1.667574 48.011254 -0.816469 1.840615 53.666558 0.000002 -0.000000 0.000002 -7.756800 -9.376456 47.264018 -0.526056 1.541575 45.600515 -0.508180 0.803437 24.986610 0.000004 -0.000001 -0.000001 -67.061256 25.229605 43.483313 42.792307 -19.279920 3.273764 8.398779 0.689440 -12.664262 -0.851736 -5.970500 0.552162 -0.000000 -0.000003 -0.000000 -29.932515 0.504859 -29.865480 49.856440 6.073642 -4.890218 -26.477049 -4.761510 26.750894 0.528320 2.970091 1.471361 -0.000000 0.000000 0.000000 
-0.069997 74.658600 -0.700260 11.265711 -50.630867 11.298539 10.943087 2.889022 -2.576004 5.661715 5.628860 -4.526595 0.000000 0.000000 0.000000 -6.202369 6.409819 -3.316669 2.263847 9.977100 -0.273082 -3.343281 23.780209 -4.097044 -0.000000 0.000000 -0.000000 -1.837228 -16.093995 -2.699862 0.000000 0.000000 0.000000 -8.760459 4.176589 -44.764961 -24.203711 -31.576866 -19.708449 1.849844 0.895193 8.346061 18.457948 -9.513830 13.216582 -1.150187 11.255331 -8.400837 5.706542 8.483079 -0.820740 -0.000002 -0.000001 0.000002 -1.232780 -5.771945 -0.192316 0.133953 -0.197668 -4.602150 0.055766 -0.448189 -7.568187 0.000001 0.000001 -0.000002 1.884745 4.663358 -4.597423 0.476677 -1.009818 -12.986391 0.628549 -1.346619 -16.554005 -0.000001 -0.000002 -0.000000 3.024629 7.938918 -14.103483 -0.708010 -0.566191 -18.895756 -0.726384 -0.705044 -22.058424 -0.000000 0.000005 0.000002 2.010385 6.305932 -22.386549 -0.815370 -0.210758 -16.746478 -2.232639 0.018991 -34.673845 -0.000003 -0.000002 -0.000002 -5.039715 24.119901 1.323476 0.000000 0.000000 0.000000 8.594056 -36.353976 58.117069 -22.083499 47.698455 21.417672 -0.802657 33.303835 8.194885 55.149512 18.649611 -29.698291 -0.442545 -14.180528 7.313149 21.666984 -29.244517 9.142377 -0.000001 0.000000 -0.000000 5.673360 7.585016 36.844168 1.050462 3.824498 68.900257 0.499575 3.026049 62.196454 0.000003 0.000001 -0.000000 -0.125707 1.886088 45.000766 -1.169012 3.204691 68.417670 -0.936425 1.813609 41.107535 -0.000003 0.000000 -0.000002 -5.312008 1.216640 58.508821 -0.745221 1.667572 48.011254 -0.816468 1.840616 53.666558 -0.000002 0.000002 0.000001 -7.756799 -9.376456 47.264014 -0.526055 1.541581 45.600518 -0.508174 0.803442 24.986611 -0.000001 0.000000 -0.000002 -66.737369 25.281833 43.669463 42.539753 -19.202691 3.295384 8.439348 0.739422 -12.878621 -0.755586 -5.882711 0.508397 -0.000000 0.000000 -0.000000 -30.043157 0.465447 -29.679764 49.806819 6.185089 -4.901297 -26.335123 -4.520332 26.551508 0.528333 2.970048 1.471343 0.000000 0.000003 0.000000 
